<svg width="16" height="16" viewBox="0 0 16 16" fill="none" xmlns="http://www.w3.org/2000/svg">
<path d="M5.615 16C5.16833 16 4.78733 15.8427 4.472 15.528C4.15733 15.2133 4 14.8323 4 14.385V5.615C4 5.16833 4.15733 4.78733 4.472 4.472C4.78667 4.15733 5.16767 4 5.615 4H14.385C14.8317 4 15.2127 4.15733 15.528 4.472C15.8427 4.78667 16 5.16767 16 5.615V14.385C16 14.8317 15.8427 15.2127 15.528 15.528C15.2133 15.8427 14.8323 16 14.385 16H5.615ZM5 7.654H15V5.615C15 5.43567 14.9423 5.28833 14.827 5.173C14.7117 5.05767 14.5643 5 14.385 5H5.615C5.43567 5 5.28833 5.05767 5.173 5.173C5.05767 5.28833 5 5.43567 5 5.615V7.654ZM8.654 11.346H11.346V8.654H8.654V11.346ZM8.654 15H11.346V12.346H8.654V15ZM5 11.346H7.654V8.654H5V11.346ZM12.346 11.346H15V8.654H12.346V11.346ZM5.616 15H7.654V12.346H5V14.385C5 14.5643 5.05767 14.7117 5.173 14.827C5.28833 14.9423 5.43567 15 5.615 15M12.346 15H14.385C14.5643 15 14.7117 14.9423 14.827 14.827C14.9423 14.7117 15 14.5643 15 14.385V12.346H12.346V15ZM1.616 12C1.168 12 0.786667 11.8427 0.472 11.528C0.157333 11.2133 0 10.8323 0 10.385V1.615C0 1.16833 0.157333 0.787333 0.472 0.472C0.786667 0.157333 1.16767 0 1.615 0H10.385C10.8317 0 11.2127 0.157333 11.528 0.472C11.8427 0.786667 12 1.16767 12 1.615V3H11V1.615C11 1.43567 10.9423 1.28833 10.827 1.173C10.7117 1.05767 10.5643 1 10.385 1H1.615C1.43567 1 1.28833 1.05767 1.173 1.173C1.05767 1.28833 1 1.43567 1 1.615V10.385C1 10.5643 1.05767 10.7117 1.173 10.827C1.28833 10.9423 1.43567 11 1.615 11H3V12H1.616Z" fill="currentColor"/>
</svg>
