<svg width="14" height="18" viewBox="0 0 14 18" fill="currentColor" xmlns="http://www.w3.org/2000/svg">
<path d="M2.125 10H7.125V11.25H2.125V10ZM2.125 6.875H9.625V8.125H2.125V6.875ZM2.125 13.125H5.25V14.375H2.125V13.125Z"/>
<path d="M12.5 1.875H10.625V1.25C10.625 0.918479 10.4933 0.600537 10.2589 0.366116C10.0245 0.131696 9.70652 0 9.375 0H4.375C4.04348 0 3.72554 0.131696 3.49112 0.366116C3.2567 0.600537 3.125 0.918479 3.125 1.25V1.875H1.25C0.918479 1.875 0.600537 2.0067 0.366116 2.24112C0.131696 2.47554 0 2.79348 0 3.125V16.25C0 16.5815 0.131696 16.8995 0.366116 17.1339C0.600537 17.3683 0.918479 17.5 1.25 17.5H12.5C12.8315 17.5 13.1495 17.3683 13.3839 17.1339C13.6183 16.8995 13.75 16.5815 13.75 16.25V3.125C13.75 2.79348 13.6183 2.47554 13.3839 2.24112C13.1495 2.0067 12.8315 1.875 12.5 1.875ZM4.375 1.25H9.375V3.75H4.375V1.25ZM12.5 16.25H1.25V3.125H3.125V5H10.625V3.125H12.5V16.25Z" />
</svg>
