<svg width="19" height="14" viewBox="0 0 19 14" fill="none" xmlns="http://www.w3.org/2000/svg">
<path d="M10.808 7.192C10.244 7.192 9.76967 6.99967 9.385 6.615C9.00033 6.23033 8.808 5.756 8.808 5.192C8.808 4.628 9.00033 4.15367 9.385 3.769C9.76967 3.38433 10.244 3.192 10.808 3.192C11.372 3.192 11.8463 3.38433 12.231 3.769C12.6157 4.15367 12.808 4.628 12.808 5.192C12.808 5.756 12.6157 6.23033 12.231 6.615C11.8463 6.99967 11.372 7.192 10.808 7.192ZM4.616 10.384C4.17133 10.384 3.791 10.226 3.475 9.91C3.15833 9.59333 3 9.213 3 8.769V1.615C3 1.171 3.15833 0.791 3.475 0.475C3.791 0.158333 4.171 0 4.615 0H17C17.4447 0 17.825 0.158 18.141 0.474C18.457 0.79 18.6153 1.17033 18.616 1.615V8.769C18.616 9.213 18.4577 9.593 18.141 9.909C17.825 10.2257 17.445 10.384 17.001 10.384H4.616ZM5.616 9.384H16C16 8.93733 16.1583 8.55633 16.475 8.241C16.791 7.92633 17.171 7.769 17.615 7.769V2.615C17.1683 2.615 16.7873 2.457 16.472 2.141C16.1573 1.82433 16 1.444 16 1H5.616C5.616 1.44667 5.45767 1.82767 5.141 2.143C4.825 2.45767 4.445 2.615 4.001 2.615V7.769C4.44767 7.769 4.82867 7.92733 5.144 8.244C5.45867 8.56 5.616 8.94 5.616 9.384ZM15.154 13.384H1.616C1.17133 13.384 0.791 13.226 0.475 12.91C0.158333 12.5933 0 12.213 0 11.769V3.461C0 3.31967 0.0480001 3.201 0.144 3.105C0.24 3.009 0.359 2.961 0.501 2.961C0.643 2.961 0.761667 3.009 0.857 3.105C0.952333 3.201 1 3.31967 1 3.461V11.769C1 11.9223 1.06433 12.0633 1.193 12.192C1.321 12.32 1.462 12.384 1.616 12.384H15.154C15.296 12.384 15.4147 12.432 15.51 12.528C15.606 12.624 15.654 12.743 15.654 12.885C15.654 13.027 15.606 13.1457 15.51 13.241C15.4147 13.3363 15.296 13.384 15.154 13.384ZM4.616 9.384H4V1H4.616C4.44933 1 4.305 1.06067 4.183 1.182C4.061 1.304 4 1.44833 4 1.615V8.769C4 8.93567 4.061 9.08 4.183 9.202C4.305 9.32333 4.44933 9.384 4.616 9.384Z" fill="currentColor"/>
</svg>
