<svg width="45" height="48" viewBox="0 0 45 48" fill="none" xmlns="http://www.w3.org/2000/svg">
<path d="M9.57123 27.5113C9.57123 30.5988 10.4462 33.4038 12.1962 35.9263C13.945 38.4488 16.26 40.265 19.1412 41.375C19.435 41.4875 19.65 41.6663 19.7862 41.9113C19.9225 42.1563 19.925 42.3888 19.7937 42.6088C19.64 42.8613 19.4194 43.0275 19.1319 43.1075C18.8444 43.1875 18.5631 43.175 18.2881 43.07C15.0694 41.815 12.4931 39.7681 10.5594 36.9294C8.62686 34.0906 7.66061 30.9394 7.66061 27.4756C7.66061 26.4944 7.74561 25.5231 7.91561 24.5619C8.08436 23.5994 8.34686 22.6556 8.70311 21.7306L5.42561 23.6206C5.20436 23.7581 4.96998 23.7925 4.72248 23.7238C4.47498 23.655 4.28623 23.51 4.15623 23.2888C4.02623 23.0675 3.99561 22.8313 4.06436 22.58C4.13311 22.3288 4.27811 22.1381 4.49936 22.0081L9.70248 19.0156C10.0675 18.8131 10.4537 18.7644 10.8612 18.8694C11.2687 18.9744 11.5731 19.2094 11.7744 19.5744L14.7687 24.7306C14.8975 24.9519 14.9281 25.1881 14.8606 25.4394C14.7919 25.6894 14.6469 25.88 14.4256 26.0113C14.2044 26.1425 13.9681 26.1731 13.7169 26.1031C13.4669 26.0344 13.2762 25.8894 13.145 25.6681L10.7937 21.6406C10.3787 22.5631 10.0712 23.5194 9.87123 24.5094C9.67123 25.4994 9.57123 26.5013 9.57123 27.5113ZM24.5 12.5375C22.81 12.5375 21.1775 12.8219 19.6025 13.3906C18.0275 13.9594 16.5819 14.7719 15.2656 15.8281C15.0369 16.0056 14.785 16.0856 14.51 16.0681C14.235 16.0494 14.0325 15.93 13.9025 15.71C13.7412 15.45 13.7031 15.1763 13.7881 14.8888C13.8719 14.6013 14.0312 14.365 14.2662 14.18C15.745 13.03 17.3481 12.1563 19.0756 11.5588C20.8019 10.96 22.5981 10.6606 24.4644 10.6606C26.9094 10.6606 29.2219 11.1519 31.4019 12.1344C33.5844 13.1156 35.4819 14.5294 37.0944 16.3756V12.4644C37.0944 12.1969 37.1844 11.9738 37.3644 11.795C37.5431 11.6163 37.7656 11.5269 38.0319 11.5269C38.2994 11.5269 38.5225 11.6163 38.7012 11.795C38.88 11.9738 38.9694 12.1969 38.9694 12.4644V18.4494C38.9694 18.8844 38.8256 19.2456 38.5381 19.5331C38.2506 19.8206 37.89 19.9644 37.4562 19.9644H31.4694C31.2031 19.9644 30.9806 19.875 30.8019 19.6963C30.6231 19.5175 30.5331 19.2944 30.5319 19.0269C30.5319 18.7594 30.6219 18.5363 30.8019 18.3575C30.9806 18.1788 31.2031 18.0894 31.4694 18.0894H36.11C34.6975 16.3081 32.9756 14.9375 30.9444 13.9775C28.9131 13.0163 26.765 12.5375 24.5 12.5375ZM35.6994 37.3906C37.2244 35.6556 38.2806 33.695 38.8681 31.5088C39.4581 29.3238 39.5362 27.1088 39.1025 24.8638C39.055 24.5738 39.1087 24.3094 39.2637 24.0706C39.4187 23.8331 39.63 23.7144 39.8975 23.7144C40.2112 23.7144 40.47 23.8331 40.6737 24.0706C40.8762 24.3081 41.0012 24.5844 41.0487 24.8994C41.4587 27.2681 41.3494 29.6081 40.7206 31.9194C40.0919 34.2306 39 36.3188 37.445 38.1838C36.2025 39.6888 34.745 40.935 33.0725 41.9225C31.4012 42.91 29.605 43.5894 27.6837 43.9606L30.9275 45.8281C31.15 45.9581 31.2937 46.1488 31.3587 46.4C31.4237 46.65 31.3912 46.8863 31.2612 47.1088C31.1312 47.3313 30.9425 47.4744 30.695 47.5381C30.4475 47.6019 30.2131 47.5694 29.9919 47.4406L24.8131 44.4106C24.4481 44.2094 24.2131 43.905 24.1081 43.4975C24.0044 43.09 24.0531 42.7031 24.2544 42.3369L27.2469 37.2069C27.3769 36.9856 27.5656 36.8425 27.8131 36.7775C28.0606 36.7125 28.295 36.745 28.5162 36.875C28.7375 37.005 28.8825 37.1956 28.9512 37.4469C29.02 37.6969 28.9894 37.9331 28.8594 38.1556L26.4031 42.335C28.2094 42.085 29.9131 41.5419 31.5144 40.7056C33.1156 39.8694 34.5106 38.7644 35.6994 37.3906Z" fill="#111111"/>
</svg>
