<svg width="37" height="37" viewBox="0 0 37 37" fill="none" xmlns="http://www.w3.org/2000/svg">
<path d="M32.1111 36H4.88889C3.85749 36 2.86834 35.5391 2.13903 34.7186C1.40972 33.8981 1 32.7853 1 31.625V5.375C1 4.21468 1.40972 3.10188 2.13903 2.28141C2.86834 1.46094 3.85749 1 4.88889 1H24.3333C25.3647 1 26.3539 1.46094 27.0832 2.28141C27.8125 3.10188 28.2222 4.21468 28.2222 5.375V7.5625M32.1111 36C31.0797 36 30.0906 35.5391 29.3613 34.7186C28.6319 33.8981 28.2222 32.7853 28.2222 31.625V7.5625M32.1111 36C33.1425 36 34.1317 35.5391 34.861 34.7186C35.5903 33.8981 36 32.7853 36 31.625V11.9375C36 10.7772 35.5903 9.66438 34.861 8.84391C34.1317 8.02344 33.1425 7.5625 32.1111 7.5625H28.2222M20.4444 1H12.6667M8.77778 27.25H20.4444M8.77778 9.75H20.4444V18.5H8.77778V9.75Z" stroke="#111111" stroke-width="2" stroke-linecap="round" stroke-linejoin="round"/>
</svg>
