<svg width="35" height="35" viewBox="0 0 35 35" fill="none" xmlns="http://www.w3.org/2000/svg">
<path d="M26.5517 35C24.8808 35 23.2474 34.5045 21.8581 33.5762C20.4688 32.6479 19.386 31.3285 18.7465 29.7848C18.1071 28.241 17.9398 26.5424 18.2658 24.9036C18.5918 23.2648 19.3964 21.7595 20.5779 20.5779C21.7594 19.3964 23.2647 18.5918 24.9035 18.2658C26.5424 17.9399 28.241 18.1072 29.7847 18.7466C31.3285 19.386 32.6479 20.4689 33.5762 21.8582C34.5045 23.2475 35 24.8808 35 26.5518C34.9974 28.7916 34.1065 30.9389 32.5227 32.5227C30.9389 34.1065 28.7916 34.9974 26.5517 35ZM26.5517 20.5173C25.3582 20.5173 24.1915 20.8712 23.1991 21.5343C22.2068 22.1974 21.4333 23.1398 20.9766 24.2425C20.5199 25.3451 20.4004 26.5584 20.6332 27.729C20.866 28.8996 21.4408 29.9748 22.2847 30.8188C23.1286 31.6627 24.2039 32.2374 25.3745 32.4703C26.545 32.7031 27.7584 32.5836 28.861 32.1269C29.9637 31.6701 30.9061 30.8967 31.5692 29.9043C32.2323 28.912 32.5862 27.7453 32.5862 26.5518C32.5843 24.9519 31.9479 23.4181 30.8166 22.2869C29.6854 21.1556 28.1516 20.5192 26.5517 20.5173ZM16.8966 31.3793C13.0568 31.3752 9.37543 29.848 6.66028 27.1329C3.94514 24.4177 2.41795 20.7364 2.41379 16.8966H0C0.00511087 21.3763 1.78692 25.671 4.95453 28.8386C8.12214 32.0062 12.4169 33.788 16.8966 33.7931V31.3793ZM12.069 7.24148H6.12862C8.08163 5.05484 10.6531 3.51335 13.502 2.82135C16.351 2.12935 19.3431 2.31951 22.0815 3.36662C24.82 4.41373 27.1756 6.26835 28.8361 8.68464C30.4965 11.1009 31.3835 13.9648 31.3793 16.8966H33.7931C33.7984 13.5376 32.8008 10.2534 30.9281 7.46483C29.0554 4.67624 26.3929 2.5102 23.2815 1.24415C20.1702 -0.0219023 16.7518 -0.330306 13.4641 0.358439C10.1764 1.04718 7.16915 2.70172 4.82759 5.11011V0.000123682H2.41379V9.65526H12.069V7.24148Z" fill="#111111"/>
</svg>
