<svg width="35" height="35" viewBox="0 0 35 35" fill="none" xmlns="http://www.w3.org/2000/svg">
<path d="M32.4844 21.1094L29.2031 17.8281C28.7656 17.3906 28.1094 17.3906 27.6719 17.8281L17.5 28V32.8125H22.3125L32.4844 22.6406C32.9219 22.2031 32.9219 21.5469 32.4844 21.1094ZM21.4375 30.625H19.6875V28.875L25.1562 23.4062L26.9062 25.1562L21.4375 30.625ZM28.4375 23.625L26.6875 21.875L28.4375 20.125L30.1875 21.875L28.4375 23.625ZM10.9375 25.1562H13.125V27.3438H10.9375V25.1562ZM15.3125 19.6875H19.6875V21.875H15.3125V19.6875ZM10.9375 19.6875H13.125V21.875H10.9375V19.6875ZM15.3125 14.2188H24.0625V16.4062H15.3125V14.2188ZM10.9375 14.2188H13.125V16.4062H10.9375V14.2188Z" fill="#111111"/>
<path d="M7.65625 30.625V7.65625H10.9375V10.9375H24.0625V7.65625H27.3438V14.2188H29.5312V7.65625C29.5312 6.45312 28.5469 5.46875 27.3438 5.46875H24.0625V4.375C24.0625 3.17188 23.0781 2.1875 21.875 2.1875H13.125C11.9219 2.1875 10.9375 3.17188 10.9375 4.375V5.46875H7.65625C6.45312 5.46875 5.46875 6.45312 5.46875 7.65625V30.625C5.46875 31.8281 6.45312 32.8125 7.65625 32.8125H13.125V30.625H7.65625ZM13.125 4.375H21.875V8.75H13.125V4.375Z" fill="#111111"/>
</svg>
