<svg width="31" height="30" viewBox="0 0 31 30" fill="none" xmlns="http://www.w3.org/2000/svg">
<path d="M15.6628 0.879395C17.6237 0.878846 19.5331 1.45324 21.1109 2.51828C22.6886 3.58331 23.8516 5.08289 24.429 6.79692C25.0065 8.51094 24.968 10.3491 24.3193 12.0417C23.6706 13.7343 22.4458 15.1921 20.8247 16.2011C23.6385 17.1451 26.0791 18.8378 27.8322 21.0612C29.5853 23.2847 30.5707 25.9372 30.6617 28.6772C30.6702 28.8293 30.6454 28.9814 30.5888 29.1247C30.5321 29.2679 30.4448 29.3993 30.3319 29.5112C30.219 29.6232 30.0828 29.7133 29.9313 29.7765C29.7798 29.8396 29.616 29.8744 29.4496 29.8789C29.2831 29.8834 29.1174 29.8574 28.9621 29.8025C28.8068 29.7476 28.665 29.6649 28.5451 29.5592C28.4252 29.4535 28.3296 29.327 28.2639 29.1871C28.1982 29.0472 28.1637 28.8966 28.1624 28.7443C28.0631 25.7728 26.7028 22.9534 24.3696 20.8836C22.0365 18.8137 18.9139 17.6562 15.6636 17.6562C12.4133 17.6562 9.29075 18.8137 6.95761 20.8836C4.62446 22.9534 3.26411 25.7728 3.16482 28.7443C3.15487 29.0477 3.01359 29.335 2.77204 29.543C2.5305 29.7511 2.20849 29.8629 1.87684 29.8538C1.5452 29.8447 1.23109 29.7155 1.00362 29.4945C0.776147 29.2736 0.653944 28.9791 0.663893 28.6757C0.755174 25.9359 1.74078 23.2837 3.49388 21.0606C5.24697 18.8374 7.68733 17.145 10.5009 16.2011C8.87976 15.1921 7.65496 13.7343 7.00625 12.0417C6.35755 10.3491 6.3191 8.51094 6.89656 6.79692C7.47401 5.08289 8.63696 3.58331 10.2147 2.51828C11.7925 1.45324 13.7019 0.878846 15.6628 0.879395ZM8.99365 9.26694C8.99365 10.8848 9.69629 12.4363 10.947 13.5803C12.1977 14.7243 13.894 15.367 15.6628 15.367C17.4316 15.367 19.1279 14.7243 20.3786 13.5803C21.6293 12.4363 22.3319 10.8848 22.3319 9.26694C22.3319 7.64911 21.6293 6.09754 20.3786 4.95356C19.1279 3.80959 17.4316 3.16691 15.6628 3.16691C13.894 3.16691 12.1977 3.80959 10.947 4.95356C9.69629 6.09754 8.99365 7.64911 8.99365 9.26694Z" fill="white"/>
</svg>
