<svg width="37" height="32" viewBox="0 0 37 32" fill="none" xmlns="http://www.w3.org/2000/svg">
<path d="M33.6754 30.9999H1V1.03882" stroke="#111111" stroke-width="1.5" stroke-linecap="round" stroke-linejoin="round"/>
<path d="M16.1707 13.8794V16.0194M1.00778 26.737H5.2089C19.0477 26.737 30.204 21.9047 33.1448 8.52917M23.7561 7.99415C23.763 6.81258 23.4416 5.64887 22.8222 4.61275C22.2028 3.57662 21.3058 2.70224 20.2157 2.07205C19.1257 1.44185 17.8785 1.07663 16.5919 1.0108C15.3053 0.944982 14.0216 1.18073 12.8619 1.69583C11.7021 2.21092 10.7046 2.98839 9.96331 3.9549C9.22204 4.92141 8.76146 6.04512 8.62501 7.22006C8.48856 8.395 8.68074 9.58244 9.18341 10.6704C9.68609 11.7584 10.4827 12.711 11.4981 13.4385V13.8794C11.4981 14.4469 11.744 14.9913 12.1817 15.3926C12.6194 15.794 13.2131 16.0194 13.8321 16.0194H18.5C19.119 16.0194 19.7127 15.794 20.1504 15.3926C20.5881 14.9913 20.834 14.4469 20.834 13.8794V13.4385C21.7403 12.7944 22.4745 11.9692 22.9809 11.0258C23.4872 10.0824 23.7523 9.0456 23.7561 7.99415Z" stroke="#111111" stroke-width="1.5" stroke-linecap="round" stroke-linejoin="round"/>
<path d="M28.7289 11.143L33.1495 8.5293L36 12.584" stroke="#111111" stroke-width="1.5" stroke-linecap="round" stroke-linejoin="round"/>
</svg>
