<svg width="18" height="16" viewBox="0 0 18 16" fill="none" xmlns="http://www.w3.org/2000/svg">
<path d="M17 8C17 7.49368 16.7893 7.00809 16.4142 6.65007C16.0391 6.29205 15.5304 6.09091 15 6.09091H11.6667C11.6667 6.76601 11.3857 7.41345 10.8856 7.89082C10.3855 8.36818 9.70724 8.63636 9 8.63636C8.29276 8.63636 7.61448 8.36818 7.11438 7.89082C6.61428 7.41345 6.33333 6.76601 6.33333 6.09091H3C2.46957 6.09091 1.96086 6.29205 1.58579 6.65007C1.21071 7.00809 1 7.49368 1 8M17 8V13.0909C17 13.5972 16.7893 14.0828 16.4142 14.4408C16.0391 14.7989 15.5304 15 15 15H3C2.46957 15 1.96086 14.7989 1.58579 14.4408C1.21071 14.0828 1 13.5972 1 13.0909V8M17 8V5.45455M1 8V5.45455M17 5.45455C17 4.94822 16.7893 4.46264 16.4142 4.10461C16.0391 3.74659 15.5304 3.54545 15 3.54545H3C2.46957 3.54545 1.96086 3.74659 1.58579 4.10461C1.21071 4.46264 1 4.94822 1 5.45455M17 5.45455V2.90909C17 2.40277 16.7893 1.91718 16.4142 1.55916C16.0391 1.20114 15.5304 1 15 1H3C2.46957 1 1.96086 1.20114 1.58579 1.55916C1.21071 1.91718 1 2.40277 1 2.90909V5.45455" stroke="currentColor" stroke-width="1.5" stroke-linecap="round" stroke-linejoin="round" fill="currentColor"/>
</svg>
